HIERARCHY
ROOT Hips
{
	OFFSET 0.000000 0.000000 0.000000
	CHANNELS 6 Xposition Yposition Zposition Yrotation Xrotation Zrotation
	JOINT Chest
	{
		OFFSET 0.000000 -0.009281 11.569106
		CHANNELS 3 Yrotation Xrotation Zrotation
		JOINT Chest2
		{
			OFFSET -0.000000 0.016865 9.269641
			CHANNELS 3 Yrotation Xrotation Zrotation
			JOINT Chest3
			{
				OFFSET -0.000000 0.000001 8.374491
				CHANNELS 3 Yrotation Xrotation Zrotation
				JOINT Chest4
				{
					OFFSET -0.000000 0.000001 8.374493
					CHANNELS 3 Yrotation Xrotation Zrotation
					JOINT Neck
					{
						OFFSET -0.000000 0.000002 12.152554
						CHANNELS 3 Yrotation Xrotation Zrotation
						JOINT Head
						{
							OFFSET -0.000000 0.040101 7.802319
							CHANNELS 3 Yrotation Xrotation Zrotation
							End Site
							{
								OFFSET -0.000000 0.020947 14.853096
							}
						}
					}
					JOINT RightCollar
					{
						OFFSET 2.894404 0.000001 6.791374
						CHANNELS 3 Yrotation Xrotation Zrotation
						JOINT RightShoulder
						{
							OFFSET 13.574684 0.000001 0.000000
							CHANNELS 3 Yrotation Xrotation Zrotation
							JOINT RightElbow
							{
								OFFSET 23.923903 0.000002 0.000000
								CHANNELS 3 Yrotation Xrotation Zrotation
								JOINT RightWrist
								{
									OFFSET 19.846718 0.012767 0.000000
									CHANNELS 3 Yrotation Xrotation Zrotation
									End Site
									{
										OFFSET 14.973145 0.000001 0.000000
									}
								}
							}
						}
					}
					JOINT LeftCollar
					{
						OFFSET -2.894404 0.000001 6.791374
						CHANNELS 3 Yrotation Xrotation Zrotation
						JOINT LeftShoulder
						{
							OFFSET -13.574684 -0.000001 0.000000
							CHANNELS 3 Yrotation Xrotation Zrotation
							JOINT LeftElbow
							{
								OFFSET -23.923903 -0.000002 0.000000
								CHANNELS 3 Yrotation Xrotation Zrotation
								JOINT LeftWrist
								{
									OFFSET -19.846718 0.012763 0.000000
									CHANNELS 3 Yrotation Xrotation Zrotation
									End Site
									{
										OFFSET -14.973145 -0.000001 0.000000
									}
								}
							}
						}
					}
				}
			}
		}
	}
	JOINT RightHip
	{
		OFFSET 9.469263 0.004643 0.045487
		CHANNELS 3 Yrotation Xrotation Zrotation
		JOINT RightKnee
		{
			OFFSET 0.000000 0.002661 -40.478676
			CHANNELS 3 Yrotation Xrotation Zrotation
			JOINT RightAnkle
			{
				OFFSET 0.000000 0.049106 -35.224068
				CHANNELS 3 Yrotation Xrotation Zrotation
				JOINT RightToe
				{
					OFFSET -0.000001 12.539529 -6.151390
					CHANNELS 3 Yrotation Xrotation Zrotation
					End Site
					{
						OFFSET -0.000001 5.044994 -1.291870
					}
				}
			}
		}
	}
	JOINT LeftHip
	{
		OFFSET -9.469263 0.004641 0.045487
		CHANNELS 3 Yrotation Xrotation Zrotation
		JOINT LeftKnee
		{
			OFFSET 0.000000 0.002661 -40.478676
			CHANNELS 3 Yrotation Xrotation Zrotation
			JOINT LeftAnkle
			{
				OFFSET 0.000000 0.049106 -35.224068
				CHANNELS 3 Yrotation Xrotation Zrotation
				JOINT LeftToe
				{
					OFFSET -0.000001 12.539529 -6.151390
					CHANNELS 3 Yrotation Xrotation Zrotation
					End Site
					{
						OFFSET -0.000001 5.044994 -1.291870
					}
				}
			}
		}
	}
}
MOTION
Frames: 9
Frame Time: 0.016667
26.261412 0.852955 82.900795 -0.482776 5.275417 -90.419868 -2.186399 -6.190558 0.164057 -0.938907 -2.787453 0.000027 -0.938907 -2.787451 0.000027 -0.704042 -2.090595 -0.004265 0.983238 -22.473317 -0.823191 1.549360 -5.547143 -1.216668 5.872996 4.788512 -2.552050 63.597845 40.651718 58.601917 20.997328 14.393947 59.757400 -63.790886 30.557594 13.862330 -11.153617 5.594179 -4.558715 -53.482065 21.150833 7.073916 -14.296330 -42.808590 -14.603470 23.707368 3.025149 -34.188724 -2.113068 8.842597 -14.572554 7.712236 -11.335543 -15.835831 -5.927776 4.339051 8.747113 -0.742294 -0.493557 0.167298 16.892632 31.848745 21.055911 -8.721377 -25.899034 38.652092 4.914213 0.532001 3.028219 9.098585 -6.735089 -1.474840 
26.328754 0.809241 82.908722 -0.634290 5.325900 -90.380615 -2.206313 -6.260947 0.445156 -0.955337 -2.850724 0.088668 -0.955337 -2.850724 0.088668 -0.715941 -2.138186 0.062028 1.075418 -22.462841 -0.943583 1.682724 -5.526830 -1.408650 5.820567 4.707306 -2.534559 63.620043 39.756089 59.161719 20.563297 13.410402 60.067798 -63.824231 30.645280 14.298028 -11.122330 5.895322 -4.534672 -51.914178 21.454116 8.669082 -15.199493 -43.830294 -15.266777 23.681477 2.939666 -34.495088 -2.272144 8.811122 -14.615754 7.878914 -11.744400 -15.792055 -5.848235 4.538686 8.616796 -0.664444 -0.349738 0.163893 16.995211 31.953496 21.405354 -8.470685 -24.326074 37.828938 3.870184 0.071857 3.077956 8.968542 -6.287539 -1.314060 
26.375347 0.780917 82.895340 -0.858687 5.386093 -90.283196 -2.230615 -6.422574 0.647300 -0.963486 -2.912975 0.169432 -0.963486 -2.912975 0.169432 -0.721651 -2.185008 0.122451 1.155011 -22.437257 -1.056054 1.795427 -5.478456 -1.589652 5.786172 4.574500 -2.431692 63.523847 38.876784 59.653814 20.033394 12.478599 60.315413 -63.848950 30.667338 14.847475 -11.048564 6.164177 -4.437662 -50.377020 21.635126 10.166845 -15.988803 -45.180206 -15.961956 23.879711 2.905604 -34.840194 -2.476102 8.746783 -14.862647 8.034796 -12.255380 -15.785047 -5.748802 4.837417 8.673069 -0.600507 -0.261584 0.125212 16.850529 31.934184 21.413242 -8.030208 -22.778686 36.938968 2.768294 -0.368978 3.091654 8.699496 -5.914639 -1.187303 
26.404816 0.772343 82.857384 -1.072200 5.426900 -90.196288 -2.252451 -6.595878 0.839494 -0.959246 -2.976088 0.254185 -0.959246 -2.976089 0.254185 -0.718035 -2.232471 0.185921 1.219541 -22.401561 -1.165082 1.881761 -5.411342 -1.768477 5.861206 4.744774 -2.243198 63.041410 37.942281 59.754204 19.300557 11.520065 60.438998 -63.807347 30.589487 15.507140 -10.995746 6.466179 -4.392822 -48.809946 21.615088 11.675496 -16.591224 -46.691457 -16.795143 24.206803 2.879536 -35.203229 -2.689870 8.724345 -15.200260 8.197908 -12.854164 -15.754748 -5.657561 5.225932 8.779290 -0.533233 -0.226233 0.099827 16.583817 31.857959 21.173458 -7.518291 -21.286184 36.120595 1.708294 -0.664992 3.138904 8.288756 -5.644231 -1.105617 
26.412081 0.768596 82.794991 -1.237180 5.388800 -90.116225 -2.211415 -6.724859 1.004066 -0.940750 -3.032661 0.345509 -0.940751 -3.032661 0.345509 -0.703682 -2.275034 0.254400 1.267127 -22.369370 -1.267080 1.939390 -5.350801 -1.939288 5.964262 4.928542 -2.026590 62.482045 37.027514 59.772645 18.392825 10.544771 60.503967 -63.670819 30.516653 16.157029 -10.942381 6.752810 -4.328170 -47.301608 21.367665 13.172742 -17.077051 -48.098496 -17.784745 24.447180 2.774901 -35.549369 -2.835893 8.816089 -15.440725 8.403049 -13.541625 -15.794857 -5.606403 5.653272 8.746276 -0.463862 -0.193293 0.084472 16.329196 31.813580 20.759808 -6.935662 -19.856736 35.359872 0.718990 -0.922313 3.235954 7.759274 -5.407441 -1.047316 
26.395620 0.749037 82.710136 -1.405922 5.265286 -90.098009 -2.110755 -6.860469 1.194590 -0.908539 -3.096129 0.444930 -0.908539 -3.096127 0.444930 -0.678984 -2.322764 0.329011 1.307730 -22.319602 -1.365655 1.985130 -5.257691 -2.105707 6.089567 5.000686 -1.807183 62.045691 36.247862 59.959738 17.448268 9.488617 60.532340 -63.601752 30.539576 16.724369 -10.858328 7.031510 -4.206594 -45.910797 21.070685 14.592556 -17.632659 -49.364055 -18.743849 24.543189 2.601821 -36.059693 -2.894006 8.954197 -15.564183 8.653661 -14.278930 -15.838322 -5.640841 6.077298 8.690325 -0.373538 -0.150246 0.094490 16.145703 31.746449 20.337045 -6.215424 -18.526475 34.668923 -0.249115 -1.138696 3.376194 7.171014 -5.191911 -0.976907 
26.363581 0.738747 82.603584 -1.602294 5.149911 -90.145738 -2.026496 -7.028080 1.421202 -0.872506 -3.168143 0.551581 -0.872506 -3.168144 0.551581 -0.651351 -2.376904 0.409054 1.353394 -22.248271 -1.466503 2.039065 -5.124492 -2.274680 6.130914 4.795352 -1.669977 61.959720 35.601436 60.524902 16.603871 8.419386 60.548712 -63.615651 30.636786 17.268480 -10.811288 7.351625 -4.138567 -44.494058 20.746604 16.017682 -18.349370 -50.590497 -19.559988 24.661230 2.570249 -36.939671 -3.007496 9.155256 -15.733366 8.954508 -15.189414 -15.767642 -5.750872 6.550003 8.678262 -0.267102 -0.099295 0.093388 15.984207 31.611823 19.893215 -5.528680 -17.317852 34.285019 -1.148769 -1.267438 3.467445 6.574846 -4.948744 -0.897139 
26.337578 0.730358 82.474174 -1.821851 5.052248 -90.197101 -1.958146 -7.239545 1.625048 -0.842394 -3.244957 0.661339 -0.842395 -3.244957 0.661340 -0.628113 -2.434638 0.491397 1.412109 -22.163747 -1.570237 2.115500 -4.966693 -2.445155 6.144150 4.368221 -1.561905 62.111732 35.062032 61.342168 15.816237 7.392025 60.588470 -63.594320 30.700604 17.835857 -10.786438 7.739950 -4.087220 -42.910906 20.350666 17.490199 -19.206347 -52.125654 -20.343355 25.060037 2.841367 -38.021778 -3.152993 9.336941 -15.960699 9.293719 -16.134059 -15.739604 -5.903750 7.108568 8.677174 -0.165343 -0.098183 0.072260 15.847299 31.434023 19.404223 -5.020219 -16.288343 34.250714 -1.959951 -1.274908 3.521155 6.025775 -4.637894 -0.828141 
26.329041 0.711591 82.323891 -2.000460 4.940348 -90.248266 -1.891162 -7.435513 1.799601 -0.814640 -3.317033 0.765873 -0.814640 -3.317032 0.765873 -0.606650 -2.488805 0.569819 1.473905 -22.084542 -1.665836 2.199670 -4.818735 -2.600101 6.242422 4.019692 -1.361643 62.246519 34.558479 62.063272 15.036381 6.338899 60.656957 -63.467716 30.630649 18.429944 -10.734924 8.107349 -3.999878 -41.212969 19.878922 18.920915 -20.049788 -54.073686 -21.304840 25.612446 3.413074 -38.934650 -3.304013 9.569156 -16.357903 9.587397 -17.210052 -15.726832 -6.000901 7.760464 8.922632 -0.087698 -0.102590 0.058816 15.765333 31.263767 19.024292 -4.596590 -15.366172 34.348895 -2.675090 -1.248599 3.571897 5.517458 -4.280321 -0.766014 
